<?xml version="1.0" encoding="utf-8"?>
<!-- Generator: Adobe Illustrator 28.3.0, SVG Export Plug-In . SVG Version: 6.00 Build 0)  -->
<svg version="1.1" id="Layer_1" xmlns="http://www.w3.org/2000/svg" xmlns:xlink="http://www.w3.org/1999/xlink" x="0px" y="0px"
	 viewBox="0 0 471.1 96.5" style="enable-background:new 0 0 471.1 96.5;" xml:space="preserve">
<style type="text/css">
	.st0{fill:#2949E6;}
</style>
<g>
	<path class="st0" d="M63.8,68.6c6.3-0.9,12.4-2.5,18-5.4c5.9-3.1,10.8-7.3,13.6-13.6c2.2-5.1,1.5-10.2-2.1-13.7
		c-3.6-3.4-9.6-4.2-14.4-1.9c-3.1,1.5-5.6,3.6-7.9,6c-2.9,3-5.9,6-8.9,9c-5.3,5.4-11.9,8.8-18.9,11.4c-1.3,0.5-2.6,0.9-3.8,1.4
		c-1.3,0.5-1.4,1.3-0.5,2.3c7.6,8.3,16.7,13.7,28,15.3c10.8,1.5,21-0.4,30.6-5.2c6.9-3.4,13.2-7.8,17.3-14.7c0.8-1.4,1.4-2.9,2-4.3
		c0.4-1.1,1-1.7,2.2-2c6.9-1.3,13,0.4,18,5.4c6.1,6.1,7.5,13.3,4.5,21.2c-2.8,7.4-9.9,12.5-17.7,12.5c-27.6,0.2-55.2,0.3-82.8,0
		c-11.3-0.1-20.6-8.4-22.5-19.7c-1.3-7.7,1-14.5,6.4-20c2.3-2.4,5.5-3.9,8.4-5.6c1.6-0.9,1.9-1.2,0.9-2.7c-4-5.8-5.7-12-5.1-19.1
		C30,13,40.8,2.3,53,1.3c9-0.7,16.6,2.1,22.7,8.6c1.6,1.7,2.9,3.8,4.2,5.9c0.8,1.3,1.3,1.6,2.8,0.9c7.1-3.3,14.1-3.3,20.9,1
		c8.8,5.5,12.2,16.7,8.1,26.3c-5.8,13.6-16.2,21.8-30.5,25.1C75.4,70.4,69.6,70,63.8,68.6z"/>
	<path class="st0" d="M178.5,64.1c-0.6,1.1-1,1.8-1.4,2.6c-3.5,6.9-7,13.8-10.4,20.8c-0.9,1.8-2.1,2.6-4,2.6c-2.5-0.1-4.9,0-7.4,0
		c-2.2-0.1-2.8-0.9-1.9-2.9c1.3-2.7,2.7-5.4,4.1-8.1c3.8-7.1,7.6-14.3,11.4-21.4c0.6-1.2,0.6-2.1,0-3.2c-4.3-8.1-8.6-16.3-12.8-24.4
		c-0.6-1.1-1.2-2.3-1.7-3.5c-0.7-1.8-0.4-2.6,1.4-2.7c3.5-0.2,7,0,10.5,0.2c0.7,0.1,1.5,1.1,2,1.9c3.4,6.4,6.7,12.9,10,19.4
		c0.3,0.6,0.7,1.3,1.3,2.2c0.5-0.8,0.8-1.3,1.1-1.9c3.2-6.4,6.5-12.9,9.6-19.4c0.9-2,2.3-2.8,4.3-2.8c2.2,0,4.3-0.1,6.5,0
		c2.6,0.1,3.3,1.1,2.2,3.4c-2.6,5.4-5.5,10.6-8.2,15.9c-2,3.8-3.9,7.5-6,11.3c-0.6,1.2-0.6,2.1,0,3.3c4.7,8.9,9.4,17.9,14.1,26.9
		c0.5,1,0.9,2.1,1.4,3.2c0.7,1.5-0.2,2.3-1.4,2.3c-3.4,0.1-6.8,0.2-10.2-0.1c-0.9-0.1-1.9-1.2-2.4-2.2c-3.7-7.1-7.3-14.3-10.9-21.4
		C179.4,65.7,179,65.1,178.5,64.1z"/>
	<path class="st0" d="M236.1,68.6c-4.2,0-8.4,0.1-12.6,0c-1.7,0-2,0.7-1.9,2.1c0.7,7.4,4.7,11.1,12.1,11.2c4.4,0.1,8.6-0.9,12.7-2.3
		c0.6-0.2,1.3-0.5,1.9-0.6c1.1-0.2,1.9,0.1,1.9,1.3c0,2,0.1,4.1-0.2,6.1c-0.1,0.7-1,1.6-1.7,1.9c-6,2.5-12.3,3.4-18.8,2.8
		c-1.8-0.2-3.7-0.5-5.5-1c-6.6-1.7-11.1-5.9-13.1-12.4c-2.5-8.1-2.4-16.3,0.5-24.3c3.1-8.4,10.4-13.4,19.4-13.4
		c2.7,0,5.5,0.2,8.1,0.9c7.8,2.1,11.8,7.7,13,15.4c0.4,2.8,0.4,5.6,0.4,8.5c0,2.7-1.2,3.8-3.9,3.8C244.4,68.6,240.3,68.6,236.1,68.6
		z M231.2,60.7c2.7,0,5.4,0,8.2,0c0.5,0,1.3-0.5,1.4-0.9c0.9-4.2-2.1-9.4-5.9-10.6c-4.9-1.5-9.7,0.4-11.7,4.9
		c-0.7,1.6-1,3.4-1.4,5.1c-0.3,1.2,0.3,1.6,1.5,1.6C225.9,60.6,228.5,60.7,231.2,60.7z"/>
	<path class="st0" d="M329.1,61.9c0,5.7-0.4,6.8-6.6,6.7c-7.4-0.2-14.8,0-22.3-0.1c-1.8,0-2.2,0.6-2.1,2.3c0.8,7.4,4.8,10.9,12.3,11
		c4.3,0.1,8.5-0.9,12.5-2.3c0.6-0.2,1.3-0.5,1.9-0.6c1-0.2,1.9,0,1.9,1.3c0,2,0.1,4.1-0.1,6.1c-0.1,0.8-1.1,1.7-1.9,2
		c-5.9,2.5-12.1,3.2-18.5,2.8c-1.6-0.1-3.2-0.4-4.8-0.7c-7.5-1.8-12.4-6.4-14.4-13.9c-2-7.6-1.9-15.3,0.8-22.7
		C291,45,298.3,39.9,307.6,40c2.7,0,5.5,0.2,8,0.9c7.7,2.2,11.6,7.7,12.9,15.3C328.9,58.1,328.9,60,329.1,61.9z M307.6,60.7
		c1.9,0,3.8,0,5.8,0c4.5,0,4.5,0,3.6-4.5c-0.9-4.5-3.6-7.1-7.9-7.5c-4.3-0.4-8.1,1.8-9.7,5.9c-0.5,1.4-0.8,3-1.1,4.5
		c-0.3,1.1,0.1,1.7,1.4,1.7C302.3,60.6,304.9,60.7,307.6,60.7z"/>
	<path class="st0" d="M350.4,47.7c1.3-1.2,2.6-2.4,4-3.5c4.1-3.4,8.8-5,14.1-4.1c7.6,1.3,12.4,6.4,12.7,14.1
		c0.4,11.2,0.3,22.4,0.5,33.7c0,1.5-1,2-2.1,2.1c-2.6,0.1-5.2,0.1-7.8,0c-1.5-0.1-2.2-1-2.2-2.6c0.1-8.6,0.1-17.2,0-25.7
		c0-2.1-0.4-4.3-1.1-6.3c-1.5-4.2-5.8-6-9.6-3.8c-2.5,1.5-4.6,3.8-6.7,6c-0.5,0.5-0.5,1.6-0.5,2.5c0,8.9,0,17.9,0,26.8
		c0,2.7-0.3,3.1-3.1,3.2c-2.2,0.1-4.3,0.1-6.5,0c-2-0.1-2.6-0.8-2.6-2.8c0-14.5,0-29,0-43.5c0-1.8,0.7-2.7,2.5-2.7
		c1.9,0,3.8,0,5.7,0c1.6,0,2.2,0.9,2.1,2.4c0,1.4,0,2.8,0,4.2C350.1,47.6,350.2,47.7,350.4,47.7z"/>
	<path class="st0" d="M417.2,66.2c0-5.3,0.8-10.4,3.1-15.2c5.7-11.9,20.9-13.6,30-8c3.1,1.9,2.8,5.1,2.5,7.9c-0.3,3.7-1,4.8-4.5,2.1
		c-3.1-2.4-6.5-3.5-10.4-2.8c-3.1,0.6-5.3,2.4-6.5,5.3c-2.6,6.5-2.7,13.1-0.1,19.6c2.1,5.2,7.9,7.2,13.4,4.7
		c1.9-0.9,3.7-2.2,5.5-3.4c1.6-1.1,2.5-0.9,2.6,1c0.2,2.4,0.2,4.8,0,7.2c-0.1,0.9-0.7,1.9-1.5,2.4c-7.9,5.9-23.3,6-29.8-3.7
		c-3.2-4.8-4.2-10.2-4.3-15.8C417.2,67.1,417.2,66.7,417.2,66.2z"/>
	<path class="st0" d="M263.1,54.8c0-10.9,0-21.7,0-32.6c0-2.3,0.4-2.9,2.7-3.1c2.2-0.2,4.4-0.2,6.6,0c2.5,0.2,2.8,0.6,2.8,3.1
		c0,20.6,0,41.2,0,61.8c0,1.2-0.1,2.3,0,3.5c0.1,1.5-0.7,2.3-2,2.3c-2.7,0.1-5.3,0.1-8,0c-1.6-0.1-2.2-1.1-2.2-2.8
		C263.1,76.4,263.1,65.6,263.1,54.8z"/>
	<path class="st0" d="M406.7,65.5c0,7.2,0,14.3,0,21.5c0,2.5-0.4,2.9-2.9,3c-2.2,0.1-4.5,0.1-6.7,0c-2-0.1-2.6-0.8-2.6-2.8
		c0-14.4,0-28.9,0-43.3c0-1.9,0.9-2.8,2.6-2.8c2.3-0.1,4.7-0.1,7,0c1.8,0,2.6,0.9,2.6,2.8C406.7,51.1,406.7,58.3,406.7,65.5z"/>
	<path class="st0" d="M393.7,27.3c0.2-1.1,0.3-2.2,0.5-3.3c0.3-1.6,1.4-2.7,3-2.9c2.1-0.2,4.3-0.3,6.4-0.2c2.5,0.1,3.7,1.8,4,4.1
		c0.2,1.5,0.1,3,0,4.4c-0.3,2.4-1.6,3.8-4.1,4.1c-1.7,0.2-3.5,0.4-5.2,0.1C394.7,33.1,393.8,31.6,393.7,27.3z"/>
</g>
</svg>
